<svg xmlns="http://www.w3.org/2000/svg" viewBox="0 0 1147 859">
  <defs>
    <pattern id="halftone" width="10" height="10" patternUnits="userSpaceOnUse">
      <circle cx="5" cy="5" r="1.3" fill="#231d17" fill-opacity=".13"/>
    </pattern>
  </defs>
  <rect width="1147" height="859" fill="#8dbab6"/>
  <rect width="1147" height="859" fill="url(#halftone)"/>
  <g stroke="#231d17" stroke-width="6" stroke-linejoin="round">
    <path fill="#f0cf7a" d="M331 244Q382 188 455 214Q510 242 499 318Q479 379 418 389Q347 384 323 326Q302 281 331 244Z"/>
    <path fill="#f0cf7a" d="M642 244Q695 188 768 214Q823 242 812 318Q792 379 731 389Q660 384 636 326Q615 281 642 244Z"/>
    <path fill="#a9c1dd" d="M331 504Q382 448 455 474Q510 502 499 578Q479 639 418 649Q347 644 323 586Q302 541 331 504Z"/>
    <path fill="#a9c1dd" d="M642 504Q695 448 768 474Q823 502 812 578Q792 639 731 649Q660 644 636 586Q615 541 642 504Z"/>
  </g>
  <rect x="4" y="4" width="1139" height="851" fill="none" stroke="#231d17" stroke-width="8"/>
  <rect x="11" y="11" width="1125" height="837" fill="none" stroke="#fbf5e6" stroke-width="2"/>
</svg>
