<?xml version="1.0" encoding="utf-8"?>
<!-- Generator: Adobe Illustrator 16.0.0, SVG Export Plug-In . SVG Version: 6.00 Build 0)  -->
<!DOCTYPE svg PUBLIC "-//W3C//DTD SVG 1.1 Tiny//EN" "http://www.w3.org/Graphics/SVG/1.1/DTD/svg11-tiny.dtd">
<svg version="1.1" baseProfile="tiny" xmlns="http://www.w3.org/2000/svg" xmlns:xlink="http://www.w3.org/1999/xlink" x="0px"
	 y="0px" width="57.5px" height="379px" viewBox="0 0 57.5 379" xml:space="preserve">
<g id="Layer_1" display="none">
	
		<line display="inline" fill="none" stroke="#B3B3B3" stroke-linecap="round" stroke-linejoin="round" stroke-miterlimit="10" x1="0.5" y1="207" x2="0.5" y2="378"/>
	<path display="inline" fill="none" stroke="#B3B3B3" stroke-linecap="round" stroke-linejoin="round" stroke-miterlimit="10" d="
		M7,207c0,23.636,24.5,46.5,48.5,46.5V290v42c-24,0-48.625,22.864-48.625,46.5"/>
	<path display="inline" fill="none" stroke="#B3B3B3" stroke-linejoin="round" stroke-miterlimit="10" d="M0,378.5
		c2.292,0,4.583,0,6.875,0"/>
	<path display="inline" fill="none" stroke="#B3B3B3" stroke-linejoin="round" stroke-miterlimit="10" d="M0,207
		c2.292,0,4.584,0,6.875,0"/>
</g>
<g id="Layer_2">
	<g>
		<g>
			<radialGradient id="SVGID_1_" cx="29.4023" cy="189.001" r="134.7099" gradientUnits="userSpaceOnUse">
				<stop  offset="0" style="stop-color:#F2F2F2"/>
				<stop  offset="1" style="stop-color:#808080"/>
			</radialGradient>
			<path fill="url(#SVGID_1_)" stroke="#B3B3B3" stroke-linecap="round" stroke-linejoin="round" stroke-miterlimit="10" d="
				M56.565,275.229c0.141-0.042,0.286-0.079,0.435-0.111v-172.24c-0.077-0.024-0.338-0.097-0.391-0.107
				c-0.075-0.013-0.152-0.026-0.228-0.04c-0.143-0.018-0.284-0.034-0.419-0.06C29.056,101.421,1.946,51.801,1.946,0.502L1.804,377.5
				c0-51.089,27.027-100.513,53.832-102.15C55.929,275.29,56.24,275.25,56.565,275.229z"/>
		</g>
	</g>
	
		<rect x="0.5" y="0.5" fill="#999999" stroke="#999999" stroke-linecap="round" stroke-linejoin="round" stroke-miterlimit="10" width="2" height="377"/>
	
		<line fill="none" stroke="#4D4D4D" stroke-width="2" stroke-linecap="round" stroke-linejoin="round" stroke-miterlimit="10" x1="50" y1="115" x2="50" y2="262"/>
	
		<line fill="none" stroke="#4D4D4D" stroke-width="2" stroke-linecap="round" stroke-linejoin="round" stroke-miterlimit="10" x1="35" y1="115" x2="35" y2="262"/>
	
		<line fill="none" stroke="#4D4D4D" stroke-width="2" stroke-linecap="round" stroke-linejoin="round" stroke-miterlimit="10" x1="20" y1="115" x2="20" y2="262"/>
</g>
</svg>
