<svg xmlns="http://www.w3.org/2000/svg" viewBox="0 0 64 64">
  <g stroke="#231d17" stroke-width="3" stroke-linejoin="round">
    <path d="M19 13h26c0 10-8 14-10 19 2 5 10 9 10 19H19c0-10 8-14 10-19-2-5-10-9-10-19z" fill="#f4ead3"/>
    <path d="M24 19h16c-2 4-6 7-8 10-2-3-6-6-8-10z" fill="#e8a820" stroke="none"/>
    <path d="M22 50c1-5 5-8 10-9 5 1 9 4 10 9z" fill="#e8a820" stroke="none"/>
    <path d="M32 31v10" stroke="#e8a820" stroke-width="2"/>
    <path d="M19 13h26c0 10-8 14-10 19 2 5 10 9 10 19H19c0-10 8-14 10-19-2-5-10-9-10-19z" fill="none"/>
    <rect x="13" y="6" width="38" height="7" fill="#c8372d"/>
    <rect x="13" y="51" width="38" height="7" fill="#c8372d"/>
  </g>
</svg>
